<svg version="1.2" xmlns="http://www.w3.org/2000/svg" viewBox="0 0 16 16" width="16" height="16"><style>.a{fill:#fff}</style><path fill-rule="evenodd" class="a" d="m16 4.4v7.2c0 2.4-2 4.4-4.4 4.4h-7.2c-2.4 0-4.4-2-4.4-4.4v-7.2c0-2.4 2-4.4 4.4-4.4h7.2c2.4 0 4.4 2 4.4 4.4zm-1.4 7.2v-7.2c0-1.6-1.4-3-3-3h-7.2c-1.6 0-3 1.4-3 3v7.2c0 1.6 1.4 3 3 3h7.2c1.6 0 3-1.4 3-3zm-2.5-3.6c0 2.3-1.8 4.1-4.1 4.1-2.3 0-4.1-1.8-4.1-4.1 0-2.3 1.8-4.1 4.1-4.1 2.3 0 4.1 1.8 4.1 4.1zm-1.4 0c0-1.5-1.2-2.7-2.7-2.7-1.5 0-2.7 1.2-2.7 2.7 0 1.5 1.2 2.7 2.7 2.7 1.5 0 2.7-1.2 2.7-2.7zm2.3-5c0.2 0.2 0.3 0.4 0.3 0.7 0 0.3-0.1 0.6-0.3 0.8-0.2 0.1-0.4 0.3-0.7 0.3-0.3 0-0.5-0.2-0.7-0.3-0.2-0.2-0.3-0.5-0.3-0.8 0-0.3 0.1-0.5 0.3-0.7 0.2-0.2 0.4-0.3 0.7-0.3 0.3 0 0.5 0.1 0.7 0.3z"/></svg>