<svg version="1.2" xmlns="http://www.w3.org/2000/svg" viewBox="0 0 16 13" width="16" height="13"><style>.a{fill:#fff}</style><path class="a" d="m15.7 1.5c0.2-0.1 0.4 0.1 0.3 0.3q-0.6 0.8-1.4 1.4-0.2 0.2-0.2 0.5c0 1.1-0.2 2.2-0.6 3.3q-0.7 1.7-1.9 3-1.2 1.4-2.9 2.2-1.9 0.8-4.1 0.8c-1.7 0-3.3-0.4-4.8-1.3-0.1 0-0.1-0.1-0.1-0.2 0-0.2 0.1-0.2 0.3-0.2h0.4c1.2 0 2.5-0.4 3.5-1.1-1.2-0.2-2.3-1.1-2.7-2.3 0-0.1 0.1-0.2 0.2-0.2q0.3 0 0.6 0 0 0 0.1 0c-1.3-0.5-2.1-1.7-2.1-3.1 0-0.1 0.2-0.2 0.3-0.1q0.4 0.2 0.8 0.3c-0.7-0.7-1-1.5-1-2.4 0-0.6 0.1-1.2 0.4-1.7 0.1-0.1 0.3-0.1 0.3-0.1 1.6 1.9 3.8 3.1 6.3 3.3q0 0 0 0 0 0 0.1 0 0-0.1 0-0.1-0.1-0.7 0.1-1.3c0.2-1.1 1.1-2 2.2-2.3q0.6-0.2 1.1-0.2c0.9 0 1.7 0.3 2.3 0.8q0.1 0.1 0.3 0.2 0 0 0.1-0.1 0.9-0.2 1.7-0.6c0.1-0.1 0.3 0 0.2 0.2q-0.2 0.8-0.9 1.4 0.6-0.2 1.1-0.4z"/></svg>